<?xml version="1.0" encoding="utf-8"?>
<!-- Uploaded to: SVG Repo, www.svgrepo.com, Generator: SVG Repo Mixer Tools -->
<svg width="800px" height="800px" viewBox="-31.89 0 124.816 124.816" xmlns="http://www.w3.org/2000/svg">
  <g id="Group_5048" data-name="Group 5048" transform="translate(-146.53 -292.134)">
    <g id="Group_5046" data-name="Group 5046">
      <g id="Group_5009" data-name="Group 5009">
        <g id="Group_5008" data-name="Group 5008">
          <g id="Group_5007" data-name="Group 5007">
            <path id="Path_1848" data-name="Path 1848" d="M198.3,331.268c-2.568-2.567-10.7-3.579-22.679,8.4-18.591,18.59-10.773,36.473-9.983,38.14a56.482,56.482,0,0,1,15.652-9.794c12.588-5.2,21.26-13.124,21.26-24.094C202.555,337.445,200.43,333.548,198.3,331.268Z" fill="#b3b3b3"/>
          </g>
        </g>
      </g>
      <g id="Group_5012" data-name="Group 5012">
        <g id="Group_5011" data-name="Group 5011">
          <g id="Group_5010" data-name="Group 5010">
            <path id="Path_1849" data-name="Path 1849" d="M206.807,345.334c0-6.634-3.384-11.7-6.342-16.254l-2.16,2.188c2.125,2.28,4.25,6.177,4.25,12.649,0,9.8-6.916,17.161-17.357,22.327l7.517,7.518C206.675,362.423,206.807,345.334,206.807,345.334Z" fill="#e4cec0"/>
          </g>
        </g>
      </g>
      <g id="Group_5015" data-name="Group 5015">
        <g id="Group_5014" data-name="Group 5014">
          <g id="Group_5013" data-name="Group 5013">
            <path id="Path_1850" data-name="Path 1850" d="M160.035,383.6a74.608,74.608,0,0,0,8.082-.423l-3.99-3.989A40.156,40.156,0,0,0,160.035,383.6Z" fill="#fda654"/>
          </g>
        </g>
      </g>
      <g id="Group_5018" data-name="Group 5018">
        <g id="Group_5017" data-name="Group 5017">
          <g id="Group_5016" data-name="Group 5016">
            <path id="Path_1851" data-name="Path 1851" d="M192.71,373.766l0,0-7.517-7.518q-1.879.93-3.9,1.767l9.755,9.755A30.5,30.5,0,0,0,192.71,373.766Z" fill="#e4cec0"/>
          </g>
        </g>
      </g>
      <g id="Group_5021" data-name="Group 5021">
        <g id="Group_5020" data-name="Group 5020">
          <g id="Group_5019" data-name="Group 5019">
            <path id="Path_1852" data-name="Path 1852" d="M188.3,382.107l-11.824-11.823c-1.593.849-3.075,1.74-4.445,2.641l12.79,12.79c.233-.238.468-.475.721-.7A21.514,21.514,0,0,0,188.3,382.107Z" fill="#fda654"/>
          </g>
        </g>
      </g>
      <g id="Group_5024" data-name="Group 5024">
        <g id="Group_5023" data-name="Group 5023">
          <g id="Group_5022" data-name="Group 5022">
            <path id="Path_1853" data-name="Path 1853" d="M191.05,377.766l-9.755-9.755h0c-1.7.7-3.307,1.47-4.814,2.273L188.3,382.107A25.489,25.489,0,0,0,191.05,377.766Z" fill="#e4cec0"/>
          </g>
        </g>
      </g>
      <g id="Group_5027" data-name="Group 5027">
        <g id="Group_5026" data-name="Group 5026">
          <g id="Group_5025" data-name="Group 5025">
            <path id="Path_1854" data-name="Path 1854" d="M167.924,375.9l14.058,14.057a14.925,14.925,0,0,1,2.844-4.242l-12.79-12.79C170.526,373.918,169.156,374.923,167.924,375.9Z" fill="#fda654"/>
          </g>
        </g>
      </g>
      <g id="Group_5030" data-name="Group 5030">
        <g id="Group_5029" data-name="Group 5029">
          <g id="Group_5028" data-name="Group 5028">
            <path id="Path_1855" data-name="Path 1855" d="M191.216,413.365h-5.669c-2.695,0-4.156-2.278-4.916-4.251a13.7,13.7,0,0,1-.753-2.835,38.42,38.42,0,0,1,.847-12.756h-4.772a84.59,84.59,0,0,1,1.09,15.59h0c0,3.809-2.834,4.251-2.834,4.251h-2.835a2.835,2.835,0,0,0-2.835,2.835h25.512A2.835,2.835,0,0,0,191.216,413.365Z" fill="#ffff40"/>
          </g>
        </g>
      </g>
      <g id="Group_5033" data-name="Group 5033">
        <g id="Group_5032" data-name="Group 5032">
          <g id="Group_5031" data-name="Group 5031">
            <path id="Path_1856" data-name="Path 1856" d="M167.924,375.9c-1.465,1.161-2.733,2.28-3.8,3.29l3.99,3.989q2.233-.243,4.3-.614l1.084-1.087Z" fill="#fda654"/>
          </g>
        </g>
      </g>
      <g id="Group_5036" data-name="Group 5036">
        <g id="Group_5035" data-name="Group 5035">
          <g id="Group_5034" data-name="Group 5034">
            <path id="Path_1857" data-name="Path 1857" d="M173.5,381.478l-1.084,1.087a34.707,34.707,0,0,1,2.848,7.764l3.195,3.194h2.264a22.051,22.051,0,0,1,1.257-3.566Z" fill="#fda654"/>
          </g>
        </g>
      </g>
      <g id="Group_5039" data-name="Group 5039">
        <g id="Group_5038" data-name="Group 5038">
          <g id="Group_5037" data-name="Group 5037">
            <path id="Path_1858" data-name="Path 1858" d="M189.8,304.232c-.167-1.742,8.5-2.835,8.5-2.835a22.9,22.9,0,0,0-8.5-1.417c1.8-4.028,7.087-5.67,7.087-5.67-2-1.995-8.5,1.418-8.5,1.418S186.977,300.8,189.8,304.232Z" fill="#666"/>
          </g>
        </g>
      </g>
      <g id="Group_5042" data-name="Group 5042">
        <g id="Group_5041" data-name="Group 5041">
          <g id="Group_5040" data-name="Group 5040">
            <path id="Path_1859" data-name="Path 1859" d="M158.809,352.612c-1.068,1.238-2.147,2.544-3.2,3.89s-2.051,2.711-2.988,4.1a48.819,48.819,0,0,0-2.674,4.412,26.654,26.654,0,0,0-2.093,4.994,13.347,13.347,0,0,0-.578,3.673,26.917,26.917,0,0,0,.164,3c1.059,9.446,6.922,12.591,6.922,12.591l2.835-2.835,2.834-2.834s.217-.287.636-.782a46.528,46.528,0,0,1,3.458-3.629c.467-.443.969-.906,1.514-1.386a24.963,24.963,0,0,1-1.806-5.993,31.1,31.1,0,0,1-.429-7.515,32.232,32.232,0,0,1,.987-6.1,37.335,37.335,0,0,1,6-12.427l-2.587-2.587C166.295,344.615,162.634,348.176,158.809,352.612Z" fill="#666"/>
          </g>
        </g>
      </g>
      <g id="Group_5045" data-name="Group 5045">
        <g id="Group_5044" data-name="Group 5044">
          <g id="Group_5043" data-name="Group 5043">
            <path id="Path_1860" data-name="Path 1860" d="M189.8,304.232c-2.822-3.429-1.417-8.5-1.417-8.5,0-3.16-4.252-2.835-4.252-2.835-9.337,0-12.756,19.843-12.756,19.843l2.835,1.417-1.418,4.252h2.835l-1.417,4.252h2.834v4.252c0,8.521-8.5,15.59-8.5,15.59s-.268.246-.732.685l2.587,2.587a50.2,50.2,0,0,1,5.232-6.106c11.976-11.976,20.111-10.964,22.679-8.4l2.16-2.188C199.331,327.333,184.5,315.161,189.8,304.232Z" fill="#be8a66"/>
          </g>
        </g>
      </g>
    </g>
    <g id="Group_5047" data-name="Group 5047">
      <path id="Path_1861" data-name="Path 1861" d="M184.13,301.4a1.417,1.417,0,1,0-1.417-1.417A1.417,1.417,0,0,0,184.13,301.4Z" fill="#1a1a1a"/>
      <path id="Path_1862" data-name="Path 1862" d="M201.285,328.965l-.191-.293a15.318,15.318,0,0,0-1.528-1.684c-3.644-3.749-13.325-13.705-9.092-22.429a.541.541,0,0,0,.018-.057.669.669,0,0,0,.031-.1.629.629,0,0,0,.018-.114c0-.019.008-.037.008-.057.442-.645,4.065-1.613,7.848-2.091a.75.75,0,0,0,.178-1.443,24.543,24.543,0,0,0-7.477-1.5c2-2.893,5.967-4.162,6.011-4.176a.75.75,0,0,0,.307-1.246c-.379-.379-2.515-2.028-8.467.83a3.022,3.022,0,0,0-.821-1.306,5.984,5.984,0,0,0-4.023-1.161c-9.837.034-13.326,19.63-13.47,20.465a.748.748,0,0,0,.4.8l2.254,1.127-1.212,3.635a.75.75,0,0,0,.711.987h1.794L173.5,322.42a.75.75,0,0,0,.712.987h2.084v3.5c0,8.062-8.151,14.945-8.26,15.037,0,0-.272.249-.742.693v0c-1.43,1.353-5.172,4.985-9.049,9.481-1.142,1.323-2.225,2.642-3.22,3.919-1.108,1.422-2.123,2.815-3.018,4.14a49.962,49.962,0,0,0-2.715,4.481,27.414,27.414,0,0,0-2.15,5.136,14.091,14.091,0,0,0-.608,3.882,27.89,27.89,0,0,0,.169,3.083c1.09,9.726,7.059,13.033,7.313,13.169a.748.748,0,0,0,.884-.131l5.458-5.458a75.667,75.667,0,0,0,7.844-.418c1.29-.14,2.556-.323,3.787-.531a34.5,34.5,0,0,1,2.553,7.115c.26,1.046.488,2.105.677,3.147h0a80.632,80.632,0,0,1,1.08,14.786l0,.67c0,2.883-1.79,3.423-2.155,3.5h-2.764a3.589,3.589,0,0,0-3.585,3.585.75.75,0,0,0,.75.75h25.512a.75.75,0,0,0,.75-.75,3.589,3.589,0,0,0-3.584-3.585h-5.67c-1.833,0-3.252-1.269-4.217-3.771a13.221,13.221,0,0,1-.708-2.657,37.882,37.882,0,0,1,.829-12.473,21.291,21.291,0,0,1,1.213-3.444,14.2,14.2,0,0,1,2.7-4.03h0c.213-.219.441-.449.677-.655a22.322,22.322,0,0,0,2.852-3.012h0a26.3,26.3,0,0,0,2.827-4.469,31.139,31.139,0,0,0,1.627-3.895c13.911-11.43,14.208-28.694,14.21-28.868v-.006C207.557,338.62,204.225,333.491,201.285,328.965Zm-2.267,4.444c.167.249.34.492.492.755.1.166.175.349.265.522.146.278.3.551.428.844.075.167.133.348.2.52.128.315.26.626.37.957.055.162.093.338.143.5.107.355.218.707.305,1.078.047.2.077.412.118.615.072.353.15.7.2,1.068.036.238.052.491.081.735.04.346.088.686.114,1.042q.064.912.065,1.868c0,.48-.024.954-.058,1.425-.012.156-.026.311-.041.465-.031.32-.073.636-.119.952s-.106.643-.17.958c-.042.208-.084.416-.133.622-.075.31-.157.618-.248.921-.008.03-.018.06-.027.09-1.913,6.31-7.033,10.974-12.674,14.336-.373.221-.751.441-1.139.657q-.266.148-.53.292c-.56.3-1.132.6-1.723.9l-.13.066q-.911.449-1.851.876h0c-.644.292-1.3.574-1.951.845-.776.32-1.542.663-2.3,1.019-.176.082-.35.17-.526.255q-.912.438-1.81.908c-.08.043-.162.08-.242.122s-.181.1-.272.154q-.911.49-1.8,1.015c-.107.063-.214.124-.32.188q-1.066.636-2.107,1.318l0,0h0q-2.118,1.394-4.127,2.983l-.038.029c-.075.059-.145.122-.22.182-.438.352-.877.7-1.307,1.069a26.475,26.475,0,0,1-1.356-4.884,30.3,30.3,0,0,1-.418-7.335,31.54,31.54,0,0,1,.964-5.957A36.713,36.713,0,0,1,171,346.211q1.108-1.539,2.4-3.046c.039-.046.082-.092.122-.137q.583-.678,1.2-1.345c.46-.5.935-.991,1.432-1.488.44-.44.873-.857,1.3-1.261.207-.195.409-.379.612-.565s.4-.368.6-.545q.42-.371.827-.719l.269-.228c4.348-3.648,7.827-5.268,10.26-5.965l.067-.019c.125-.036.243-.065.363-.1s.245-.058.366-.085c.3-.069.592-.121.877-.167q.39-.06.757-.093c.113-.011.226-.022.336-.03.222-.013.441-.022.65-.022a7.14,7.14,0,0,1,3.593.845c.04.024.082.047.119.071.089.055.169.111.246.167a3.755,3.755,0,0,1,.369.308c.132.143.248.3.374.452.187.221.381.435.554.67C198.811,333.071,198.909,333.246,199.018,333.409Zm-8.885,44.5a24.977,24.977,0,0,1-1.906,3.06l-10.486-10.487c.583-.3,1.169-.589,1.759-.863l.2-.088c.475-.218.953-.424,1.431-.627l8.673,8.672Zm4.5-83.466a11.623,11.623,0,0,0-5.515,5.23.747.747,0,0,0,.069.735.755.755,0,0,0,.665.32,18.337,18.337,0,0,1,5,.453,12.724,12.724,0,0,0-5.026,1.757l-.067-.119a6.84,6.84,0,0,1-.37-.774c-.015-.036-.033-.072-.047-.109a7.651,7.651,0,0,1-.271-.883c-.018-.073-.034-.145-.05-.217-.061-.275-.111-.549-.145-.819,0-.021-.007-.043-.01-.065-.035-.289-.052-.571-.063-.847l-.006-.209c-.005-.264,0-.522.008-.764l0-.047c.011-.235.03-.454.051-.659.006-.054.011-.108.017-.16.024-.2.049-.388.075-.549l.01-.059c.025-.149.05-.28.071-.386l.008-.036A17.006,17.006,0,0,1,194.63,294.443Zm-25.61,48.632a30.4,30.4,0,0,0,4.371-4.725c2.88-3.837,4.4-7.793,4.4-11.441v-4.252a.75.75,0,0,0-.75-.75h-1.794l1.088-3.265a.749.749,0,0,0-.711-.987h-1.794l1.088-3.265a.75.75,0,0,0-.376-.908l-2.327-1.164a53.833,53.833,0,0,1,2.728-9.221c1.758-4.313,4.778-9.454,9.185-9.454l.056,0a4.5,4.5,0,0,1,2.925.766,1.67,1.67,0,0,1,.52,1.231c-.013.049-.028.114-.046.191l-.012.059c-.015.069-.03.142-.047.228-.008.04-.016.087-.024.131-.014.076-.028.152-.042.238-.01.057-.019.119-.028.181-.013.083-.025.167-.037.258-.009.072-.018.146-.026.222-.011.094-.021.189-.03.288-.008.081-.014.162-.021.247-.008.1-.014.211-.02.321,0,.088-.008.176-.011.268,0,.115-.005.234-.006.354,0,.092,0,.183,0,.277,0,.13.008.264.015.4,0,.09.007.178.013.27.012.16.03.323.048.487.008.069.013.137.022.207.031.235.07.473.119.713.009.047.023.1.034.142.041.193.087.386.142.58.024.084.054.168.08.252.049.158.1.316.159.473.036.1.077.188.117.282.061.148.124.294.195.44.047.1.1.192.151.288q.112.211.24.419c.059.1.121.191.186.286.043.063.079.129.125.192-4.2,9.551,5.774,19.807,9.563,23.7.359.369.707.727.962,1l-1.194,1.21c-.1-.073-.205-.145-.314-.214-.036-.023-.076-.045-.113-.067-.078-.047-.156-.094-.238-.139-.054-.029-.111-.056-.166-.084-.071-.037-.142-.073-.216-.108s-.129-.056-.194-.084-.143-.062-.218-.091-.143-.052-.215-.078-.149-.053-.226-.078-.156-.047-.235-.07-.156-.045-.237-.065-.166-.04-.25-.059-.167-.037-.253-.054l-.262-.046c-.089-.014-.18-.028-.271-.04s-.182-.023-.275-.033-.189-.018-.286-.025-.192-.014-.29-.019-.2-.008-.3-.01-.2,0-.3,0-.217,0-.326.008-.2.006-.3.012-.232.017-.35.027-.205.017-.31.029c-.125.014-.253.032-.381.05-.1.014-.2.026-.307.043-.142.023-.288.052-.434.08-.094.018-.186.033-.281.053-.194.041-.392.09-.592.14l-.151.036q-.38.1-.773.221c-.071.022-.145.049-.217.073-.192.062-.385.125-.582.2-.1.035-.2.077-.3.114-.174.066-.348.132-.526.2-.111.045-.225.1-.338.144-.17.073-.342.146-.516.225-.12.055-.242.114-.363.172-.173.082-.345.164-.52.253-.125.062-.251.129-.377.2-.177.093-.354.186-.533.285-.129.071-.26.146-.39.221-.181.1-.362.208-.546.318-.134.08-.269.163-.4.247-.184.114-.37.231-.556.352-.139.09-.279.181-.419.275-.189.125-.379.255-.57.388-.142.1-.284.2-.428.3-.2.139-.392.284-.59.431-.144.107-.288.213-.433.323-.2.154-.406.315-.611.476-.146.115-.291.229-.438.348-.21.17-.422.348-.635.526-.146.122-.291.241-.438.368-.225.192-.453.395-.681.6-.138.122-.275.24-.414.366-.254.23-.512.472-.77.713-.118.111-.234.215-.352.328q-.567.54-1.144,1.116c-.517.517-1.015,1.041-1.5,1.568-.187.2-.365.4-.545.6q-.42.47-.826.942c-.215.252-.428.5-.635.756s-.393.489-.587.734c-.234.3-.471.592-.693.887l-1.423-1.423Zm-14.757,45.239a12.268,12.268,0,0,1-2.43-2.333,17.932,17.932,0,0,1-3.644-9.385,26.322,26.322,0,0,1-.159-2.916,12.634,12.634,0,0,1,.548-3.465,25.971,25.971,0,0,1,2.036-4.85,48.352,48.352,0,0,1,2.632-4.344c.876-1.3,1.871-2.663,2.959-4.058.979-1.257,2.047-2.557,3.172-3.862,3.424-3.97,6.741-7.259,8.418-8.868l1.621,1.621c-.326.464-.633.926-.93,1.387-.023.035-.047.07-.07.106-9.345,14.554-4.982,27.211-3.683,30.26v0c-.319.287-.642.589-.972.9-.049.046-.1.09-.151.137-.411.39-.783.757-1.134,1.111l-.056.057c-.319.323-.611.625-.879.91l-.11.118c-.256.274-.489.529-.7.761l-.048.054c-.345.388-.616.706-.817.951l-.005.006c-.211.257-.342.422-.393.488l0,0Zm7.388-5.479.109-.125.155-.174q.278-.311.611-.668c.03-.032.057-.062.088-.094q.408-.435.9-.929l.057-.058c.172-.172.369-.36.554-.541l2.341,2.34C164.9,382.719,163.289,382.8,161.651,382.835Zm3.557-3.625.106-.1q.486-.445.988-.881c.514-.45,1.035-.893,1.567-1.324l4.573,4.573-.388.389c-1.185.207-2.414.383-3.662.526Zm8.233,3.391.062-.062,7.585,7.586a22.87,22.87,0,0,0-.934,2.648h-1.383l-2.827-2.828a35.963,35.963,0,0,0-2.61-7.236Zm3.134,10.172-.018-.093.093.093Zm8.972,21.342h5.67a2.086,2.086,0,0,1,1.944,1.335H169.429a2.089,2.089,0,0,1,1.945-1.335h2.835a.916.916,0,0,0,.116-.008c1.2-.187,3.468-1.472,3.468-4.994l0-.663a83.746,83.746,0,0,0-.951-14.177h2.926a39.355,39.355,0,0,0-.636,12.1,14.346,14.346,0,0,0,.8,3.007C181.124,412.479,183.066,414.115,185.547,414.115Zm-3.775-25.427-12.71-12.711c.148-.113.292-.23.441-.342s.291-.218.437-.326q.75-.552,1.517-1.082c.063-.043.125-.088.187-.131.1-.068.2-.131.3-.2l11.838,11.838A15.622,15.622,0,0,0,181.772,388.688Zm3.282-4.234q-.115.1-.225.2l-11.6-11.6c.094-.06.185-.124.278-.182l.032-.019c.6-.376,1.21-.738,1.822-1.09l.271-.154c.239-.136.483-.262.724-.394l4.941,4.941,6,6A20.583,20.583,0,0,1,185.054,384.454Zm5.778-7.967-4.007-4.006-4.212-4.213c.243-.106.479-.222.721-.33.453-.2.9-.406,1.341-.614.122-.059.25-.112.371-.171l6.8,6.806C191.547,374.823,191.206,375.669,190.832,376.487Zm1.93-3.738-6.3-6.3c.4-.21.786-.428,1.177-.643.313-.172.634-.342.938-.519.417-.241.814-.489,1.214-.736.247-.153.5-.3.74-.461.421-.271.825-.549,1.226-.828.189-.132.38-.264.565-.4q.633-.457,1.231-.928l.393-.315c.427-.346.842-.7,1.241-1.051.066-.058.128-.118.193-.176a25.76,25.76,0,0,0,5.454-6.793c.021-.038.044-.076.064-.114.219-.41.417-.826.605-1.244.06-.133.122-.265.179-.4q.236-.555.436-1.119c.071-.2.137-.392.2-.59.109-.336.212-.673.3-1.014.069-.257.127-.517.185-.776.067-.3.135-.6.188-.9.06-.34.1-.684.144-1.027.028-.236.066-.47.087-.708.052-.593.082-1.19.082-1.794,0-.418-.01-.824-.027-1.221-.005-.133-.016-.259-.024-.389-.015-.259-.03-.519-.051-.769-.013-.151-.031-.295-.046-.443-.024-.222-.047-.444-.075-.658-.02-.151-.044-.3-.066-.445-.031-.2-.061-.4-.1-.6-.027-.149-.056-.292-.085-.437-.037-.185-.075-.37-.116-.549-.032-.141-.066-.279-.1-.416-.043-.174-.088-.346-.135-.514-.037-.133-.075-.264-.113-.393q-.075-.248-.153-.484c-.041-.124-.082-.246-.124-.366-.056-.157-.113-.31-.171-.461-.043-.113-.086-.226-.131-.336-.062-.151-.125-.3-.189-.442-.045-.1-.089-.2-.134-.3-.07-.151-.142-.295-.214-.439-.042-.084-.083-.172-.127-.254-.084-.161-.169-.315-.256-.467-.033-.059-.065-.12-.1-.178-.243-.417-.493-.8-.745-1.156-.032-.046-.065-.088-.1-.133-.093-.128-.187-.255-.28-.375-.041-.053-.082-.1-.123-.153-.066-.082-.132-.167-.2-.245l.949-.961.065-.065c2.743,4.231,5.712,9.025,5.713,15.06C206.054,345.606,205.733,361.8,192.762,372.749Z" fill="#1a1a1a"/>
    </g>
  </g>
</svg>