<?xml version="1.0" encoding="iso-8859-1"?>
<!-- Uploaded to: SVG Repo, www.svgrepo.com, Generator: SVG Repo Mixer Tools -->
<!DOCTYPE svg PUBLIC "-//W3C//DTD SVG 1.1//EN" "http://www.w3.org/Graphics/SVG/1.1/DTD/svg11.dtd">
<svg fill="#000000" height="800px" width="800px" version="1.1" id="Capa_1" xmlns="http://www.w3.org/2000/svg" xmlns:xlink="http://www.w3.org/1999/xlink" 
	 viewBox="0 0 482.759 482.759" xml:space="preserve">
<path d="M433.592,457.864c-1.395-2.013-3.285-3.663-5.467-4.769l-20.12-10.216l-49.832-121.023
	c2.844-14.396,17.702-90.724,17.702-114.239c0-23.015-22.857-80.948-30.05-98.611c7.29-8.088,8.461-11.165,8.962-12.491
	c2.921-7.725,4.15-16.162,3.556-24.399l-3.461-47.956c-0.397-5.502-1.866-10.784-4.365-15.702c-3.371-6.634-11-9.928-18.14-7.832
	c-4.396,1.29-7.971,4.436-9.809,8.629l-6.233,14.218c-4.489,10.242-12.673,18.183-23.045,22.362c-0.372,0.15-0.756,0.269-1.134,0.35
	c-0.382,0.082-0.779,0.131-1.183,0.147c-11.174,0.454-21.896-3.436-30.193-10.932L248.856,24.63
	c-3.341-3.018-7.937-4.295-12.349-3.438c-7.238,1.129-12.712,7.205-13.059,14.548c-0.26,5.51,0.569,10.93,2.465,16.109v0L242.441,97
	c2.838,7.754,7.422,14.943,13.257,20.79c0.888,0.889,2.817,2.815,10.172,6.29l-2.369,12.96c-0.716,3.916-2.561,7.495-5.337,10.349
	l-16.688,17.167c-6.847,7.042-15.991,11.545-25.747,12.68l-27.658,3.216c-29.905,3.478-56.846,19.725-73.916,44.576
	c-19.629,28.578-35.377,57.648-46.809,86.403c-12.162,30.595-19.054,60.081-20.589,87.992c-0.469,8.528-0.191,30.761,0.445,35.962
	c1.354,11.082,6.364,27.551,23.329,37.674c6.128,3.657,21.433,8.625,83.314,9.553c6.949,0.104,13.958,0.149,20.883,0.149
	c28.499,0,55.55-0.761,70.833-1.286c9.708-0.334,17.313-8.209,17.313-17.928c0-4.935-1.961-9.533-5.521-12.948
	c-3.56-3.415-8.251-5.18-13.162-4.975c-11.988,0.5-23.15,0.849-33.541,1.073c4.803-10.588,3.735-24.259,2.802-36.132
	c-0.891-11.343-1.813-23.071,1.739-30.82c6.491-14.163,17.262-22.577,23.587-26.557l26.029,34.823
	c1.873,2.505,2.793,5.603,2.592,8.724l-2.625,40.678c-0.755,11.719,7.8,21.878,19.476,23.129c0.793,0.085,1.584,0.127,2.37,0.127
	c4.983,0,9.778-1.691,13.707-4.873c4.548-3.684,7.383-8.919,7.982-14.741l4.941-47.999c0.52-5.056-0.34-10.164-2.485-14.771
	l-21.179-45.474l10.853-10.543l20.84,60.783c0.185,0.538,0.43,1.054,0.731,1.537l52.329,83.892
	c4.93,7.904,13.435,12.622,22.749,12.622h24.333c5.526,0,10.553-3.042,13.116-7.938
	C437.102,468.266,436.739,462.403,433.592,457.864z M239.999,46.693L239.999,46.693c-1.206-3.293-1.733-6.74-1.567-10.244
	c0.01-0.223,12.295,10.084,12.295,10.084c11.225,10.141,25.727,15.399,40.844,14.79c1.257-0.05,2.513-0.208,3.737-0.47
	c1.219-0.262,2.428-0.633,3.591-1.103c14.03-5.654,25.102-16.397,31.176-30.252c0,0,6.971-14.441,7.072-14.242
	c1.589,3.127,2.522,6.487,2.775,9.985l3.461,47.956c0.439,6.082-0.469,12.31-2.619,17.996c-0.77,1.851-6.746,9.557-23.861,25.468
	c-1.978,1.839-3.757,3.737-5.235,5.351c-1.567,1.708-4.051,2.242-6.179,1.33c-2.026-0.871-4.441-1.876-6.979-2.735
	c-22.134-7.483-30.746-12.056-32.193-13.414c-4.309-4.317-7.692-9.625-9.788-15.349L239.999,46.693z M397.091,466.1
	c-4.104,0-7.851-2.079-10.022-5.561l-51.876-83.165l-22.856-66.664l19.265-18.714c2.972-2.886,3.04-7.634,0.154-10.605
	c-2.886-2.97-7.634-3.04-10.605-0.153l-38.268,37.174l-0.107-0.23c-1.216-2.61-1.073-5.651,0.381-8.135l43.692-74.64
	c2.093-3.575,0.891-8.169-2.684-10.262c-3.575-2.093-8.169-0.891-10.262,2.684l-43.692,74.64c-3.94,6.732-4.327,14.974-1.033,22.046
	l27.992,60.102c1.003,2.153,1.404,4.54,1.161,6.902l-4.941,47.999c-0.188,1.825-1.076,3.465-2.501,4.62
	c-1.426,1.154-3.21,1.683-5.039,1.487c-3.659-0.392-6.341-3.577-6.104-7.249l2.625-40.677c0.431-6.679-1.538-13.31-5.546-18.67
	l-56.598-75.719c-5.83-7.8-6.242-18.564-1.024-26.787l21.505-33.887c2.22-3.497,1.184-8.131-2.314-10.351
	c-3.498-2.221-8.132-1.183-10.351,2.314l-21.505,33.887c-8.532,13.446-7.859,31.049,1.674,43.804l21.554,28.836
	c-2.603,1.69-5.628,3.878-8.801,6.633c-0.997-6.469-3.211-12.748-6.68-18.449c-21.753-35.747-81.085-46.632-83.6-47.078
	c-4.076-0.722-7.97,1.998-8.694,6.076c-0.723,4.079,1.997,7.971,6.076,8.694c0.138,0.024,14.011,2.524,30.219,8.915
	c14.528,5.728,33.813,15.789,43.186,31.191c5.512,9.058,6.57,20.217,3.167,30.42c-1.085,1.892-2.121,3.871-3.081,5.964
	c-5.175,11.29-4.099,24.993-3.058,38.245c1.622,20.654,1.302,31.136-8.536,35.246c-48.603,0.267-75.27-2.681-80.033-6.323
	c-3.29-2.516-7.997-1.889-10.513,1.402c-2.516,3.29-1.889,7.997,1.402,10.513c5.14,3.931,17.425,8.541,67.227,9.315
	c29.188,0.455,60.629-0.607,76.771-1.281c1.079-0.046,1.817,0.49,2.154,0.813c0.338,0.324,0.904,1.03,0.904,2.123
	c0,1.592-1.243,2.882-2.829,2.937c-89.75,3.086-155.235,0.611-166.829-6.305c-7.975-4.759-12.109-12.045-14.233-18.826
	c-2.799-8.935-2.678-33.094-2.24-40.97c3.777-67.988,41.142-132.452,64.775-166.861c14.617-21.28,37.683-35.192,63.284-38.169
	l27.658-3.216c13.175-1.531,25.522-7.613,34.77-17.123l16.688-17.167c4.856-4.994,8.085-11.256,9.338-18.109l1.787-9.775
	c3.887,1.464,8.394,3.075,13.659,4.855c2.039,0.69,4.109,1.554,5.867,2.309c2.599,1.115,5.338,1.655,8.053,1.655
	c5.623,0,11.144-2.316,15.102-6.633c1.279-1.396,2.802-3.023,4.392-4.501c2.681-2.493,5.083-4.777,7.261-6.89
	c10.027,25.269,26.498,70.256,26.498,86.861c0,23.976-17.676,112.636-17.854,113.529c-0.29,1.452-0.145,2.957,0.419,4.326
	l51.754,125.689c0.684,1.66,1.939,3.019,3.54,3.832l21.873,11.106H397.091z"/>
</svg>