<?xml version="1.0" encoding="utf-8"?>
<!-- Uploaded to: SVG Repo, www.svgrepo.com, Generator: SVG Repo Mixer Tools -->
<svg width="800px" height="800px" viewBox="0 0 1024 1024" class="icon"  version="1.1" xmlns="http://www.w3.org/2000/svg"><path d="M91.230759 791.231034s240.106939 297.540688 492.561427 141.890995c61.80831-41.48777 188.458899-153.53297 226.983257-173.147937 39.300489-23.989527 201.512024-156.425825 105.483359-337.546751-46.567905-78.600978-188.035554-313.557225-418.33501-368.874251-75.355337-18.203817-369.15648-26.670709-406.693033 246.598223-3.668986 56.0226 20.391098 133.847447 32.033073 162.211534 10.4425 27.940743 44.380624 85.374492 3.668987 173.853511-21.167229 40.782195-73.520843 96.099221-35.70206 155.014676z" fill="#F4DE86" /><path d="M430.188658 988.791842c-10.301385 0-20.60277-0.564459-31.045269-1.622821-52.847516-5.50348-107.317853-24.836216-161.858748-57.504307-92.148005-55.246469-151.91015-128.626197-154.379659-131.730724l-0.352787-0.423344-0.28223-0.493902C66.959002 773.168332 63.360573 747.908771 71.263006 719.685799c6.491284-23.35451 19.897196-44.803969 31.680286-63.71336 5.362365-8.678564 10.513057-16.792669 14.393716-24.271757 34.008682-74.15586 12.982567-124.463309 0.423345-154.520774-1.622821-3.880659-3.175084-7.549645-4.374561-10.865845-9.807483-23.989527-36.689864-105.553917-32.738648-166.797767l0.070557-0.776132c12.276993-89.396265 52.283057-157.695859 118.818715-203.134845 58.068766-39.582719 125.309998-53.411975 171.454558-57.998208 55.458141-5.50348 104.354441-0.423345 129.331771 5.644594 100.332667 24.130641 195.655757 84.245573 283.358644 178.792531C856.002756 300.010198 904.546269 381.997933 925.290154 416.994419l0.211672 0.423344c23.07228 43.533935 33.444222 87.702887 30.76304 131.377937-2.18728 36.195962-13.264797 72.039137-32.95032 106.541722-33.23255 58.350996-82.975539 98.850961-107.176739 113.668021l-0.705574 0.423345c-19.756081 10.089713-67.241232 48.402398-113.103562 85.445049-41.20554 33.303108-83.822228 67.664577-112.821333 87.06787l-0.352787 0.211673c-50.166334 30.974712-103.507752 46.638462-158.965893 46.638462z m-330.42045-203.769862c5.080135 6.138497 63.431131 75.567009 148.946737 126.721147 117.619238 70.345759 228.394405 74.579205 329.291532 12.418108 28.152415-18.909392 70.345759-52.918073 111.127954-85.868394 48.61407-39.229932 94.4764-76.272583 116.419762-87.63233 21.096672-12.982567 68.511266-51.436367 99.485978-105.836147 40.217736-70.627989 40.92331-143.725487 1.975608-217.316888-45.438986-76.695928-183.237649-308.900434-411.561497-363.723558-23.425067-5.644595-69.49907-10.371942-122.276028-5.150693-43.745607 4.374561-107.247296 17.357128-161.647075 54.39978-61.314408 41.840557-98.215944 105.130573-109.716806 188.106112-3.316199 53.059188 19.614966 128.767312 31.256942 157.131399l0.141115 0.28223c1.128919 2.963412 2.540068 6.350169 4.162889 10.230827 13.053125 31.115827 37.254324 89.043478-0.776132 171.807345l-0.211672 0.423345c-4.304003 8.255219-9.666368 16.863226-15.310963 25.965135-22.437263 35.843175-47.626266 76.343141-21.308344 118.042582z" fill="#895428" /><path d="M895.656033 410.785365c-61.667195-100.756012-188.388341-298.669607-401.895129-352.504927-68.158479-17.216013-324.987528-24.695101-379.105078 196.149659 25.330118 32.95032 79.871012 112.680218 93.135809 203.558189 7.620203 40.358851-32.385861 157.907531-17.004341 199.818646 0 0 76.62537 233.262868 345.308069 124.674981 34.925928-11.148074 119.806518-31.539172 168.279473-41.699442 64.418935-15.310963 206.380486-104.354441 191.281197-329.997106z" fill="#F7EEDB" /><path d="M512.670296 377.058913m-227.971061 0a227.97106 227.97106 0 1 0 455.942121 0 227.97106 227.97106 0 1 0-455.942121 0Z" fill="#F3C323" /><path d="M658.230276 201.653139c27.305726 37.607111 43.604493 83.681113 43.604493 133.706332 0 125.874457-102.026046 227.97106-227.971061 227.97106-55.387584 0-106.118377-19.756081-145.55998-52.565286C369.72094 567.846207 436.7505 605.029973 512.670296 605.029973c125.874457 0 227.97106-102.026046 227.97106-227.97106 0-70.557431-32.033074-133.565217-82.41108-175.405774z" fill="#F3B119" /><path d="M388.771446 282.511955s0.211672-0.635017 0.635017-1.763936c0.423345-1.128919 1.058361-2.822297 1.975608-4.868463 0.917247-2.116723 2.116723-4.586233 3.598429-7.40853 1.481706-2.822297 3.245642-5.926824 5.362365-9.243024 2.116723-3.316199 4.586233-6.773513 7.40853-10.301384s5.997382-7.055743 9.525254-10.4425c3.527872-3.386757 7.479088-6.702956 11.712533-9.666368 4.304003-2.892855 8.819679-5.574037 13.617584-7.761318 4.797905-2.18728 9.807483-3.951216 14.817061-5.150692 5.009578-1.270034 10.089713-1.975608 15.028733-2.328396s9.666368-0.211672 14.182043 0.141115c1.128919 0.141115 2.257838 0.211672 3.3162 0.352787s2.18728 0.28223 3.175084 0.423345c1.058361 0.141115 2.046166 0.352787 3.104527 0.493902 0.987804 0.141115 1.975608 0.352787 2.963412 0.56446 3.880659 0.776132 7.337973 1.693378 10.371943 2.610624 3.03397 0.917247 5.644595 1.763936 7.831874 2.610625 2.18728 0.705574 3.810101 1.481706 4.939021 1.905051 1.128919 0.423345 1.763936 0.705574 1.763935 0.705574s-0.635017-0.211672-1.763935-0.564459-2.822297-0.987804-5.009578-1.622821c-2.18728-0.705574-4.797905-1.411149-7.902432-2.18728-1.552263-0.352787-3.175084-0.776132-4.93902-1.128919-0.846689-0.211672-1.763936-0.352787-2.681183-0.56446-0.917247-0.141115-1.834493-0.352787-2.822297-0.493902-3.810101-0.635017-7.97299-1.199476-12.418108-1.411148-4.445118-0.28223-9.101909-0.211672-13.899814 0.141115-4.797905 0.352787-9.736926 1.199476-14.675946 2.398952s-9.736926 2.963412-14.464273 5.080135c-4.65679 2.116723-9.172466 4.727348-13.335355 7.549645-4.162888 2.892855-8.114105 5.997382-11.641976 9.313581-3.527872 3.316199-6.773513 6.702956-9.59581 10.089713-2.822297 3.386757-5.362365 6.773513-7.620203 9.948598-4.374561 6.420726-7.620203 12.065321-9.595811 16.157652-2.046166 3.951216-2.963412 6.420726-2.963412 6.420726z" fill="#FFFFFF" /><path d="M475.2043 732.103907c7.267415 15.66375 50.589678-1.834493 62.937228-10.583615s37.818783-21.096672 51.64804-23.989526c8.749121-3.668986 16.016537-34.925928-44.380624-28.364088-28.364087 6.561841-92.359678 15.310963-70.204644 62.937229z" fill="#EAE097" /><path d="M339.096776 702.380469a30.269138 18.556604 47.776 1 0 27.483191-24.941221 30.269138 18.556604 47.776 1 0-27.483191 24.941221Z" fill="#EAE097" /><path d="M221.409219 511.541377c-2.398953 7.761317 2.892855 32.033074 14.040929 46.074002 8.749121 13.547027 15.028733 31.539172 8.749122 48.049611-2.398953 9.243023 1.905051 38.312685 27.164611 6.279611 5.362365-10.16027 15.522635-65.477296-35.913733-102.802177-9.807483-6.491284-14.040929 2.398953-14.040929 2.398953z" fill="#EAE097" /></svg>