<?xml version="1.0" encoding="utf-8"?>
<!-- Uploaded to: SVG Repo, www.svgrepo.com, Generator: SVG Repo Mixer Tools -->
<svg fill="#000000" width="800px" height="800px" viewBox="-4 0 32 32" version="1.1" xmlns="http://www.w3.org/2000/svg">
<title>github</title>
<path d="M23.563 20.469l-0.063 0.25c-0.094 0.25-0.219 0.5-0.313 0.75 0 0.063-0.063 0.188-0.094 0.25-1 2.219-2.875 3.281-5.781 3.813-0.156 0.031-0.438 0.094-0.719 0.125-2.813 0.344-4.938 0.406-7.75 0.156-0.094 0-0.219-0.031-0.281-0.031-3.906-0.438-6.219-1.844-7.438-4.094-0.031-0.031-0.094-0.125-0.125-0.25-0.125-0.219-0.219-0.5-0.313-0.719-0.063-0.125-0.094-0.188-0.125-0.281-0.406-1.156-0.563-2.5-0.563-4 0-2.625 0.813-3.656 1.906-5.063-0.844-3 0.344-5.063 0.344-5.063s1.781-0.375 5.156 2.031c1.813-0.781 6.656-0.844 8.969-0.156 1.406-0.938 4-2.25 5.063-1.875 0.25 0.438 0.844 1.75 0.344 4.656 0.344 0.625 2.219 2 2.219 5.844-0.031 1.406-0.188 2.625-0.438 3.656zM3.094 19.563c0 3.469 2.438 5 5.844 5.281 0.219 0.031 0.438 0.031 0.688 0.063 1.594 0.031 3.594 0.063 5.563 0 0.438-0.031 0.875-0.063 1.281-0.125 3.25-0.469 4.594-2.344 4.594-4.969 0-1.906-0.875-4.406-4.375-4.406-0.25 0-2.313 0.25-4.281 0.25-2.219 0-4.5-0.25-4.844-0.25-3.594 0-4.469 2.844-4.469 4.156zM7.219 17.969c0.688 0 1.219 0.813 1.219 1.813s-0.531 1.813-1.219 1.813-1.188-0.813-1.188-1.813 0.5-1.813 1.188-1.813zM17.313 21.594c-0.719 0-1.25-0.813-1.25-1.813s0.531-1.813 1.25-1.813c0.688 0 1.219 0.813 1.219 1.813s-0.531 1.813-1.219 1.813zM12.125 22.469c-0.313 0-0.563-0.281-0.563-0.594 0-0.281 0.25-0.531 0.563-0.531s0.594 0.25 0.594 0.531c0 0.313-0.281 0.594-0.594 0.594zM12.156 24.344c-0.906 0-1.625-0.781-1.625-1.25 0-0.188 0.125-0.344 0.313-0.344s0.313 0.156 0.313 0.344c0.031 0.094 0.438 0.625 1 0.625 0.438 0 0.844-0.375 0.844-0.625 0-0.188 0.156-0.344 0.313-0.344 0.188 0 0.344 0.156 0.344 0.344 0 0.563-0.625 1.25-1.5 1.25z"></path>
</svg>