<?xml version="1.0" encoding="utf-8"?>
<!-- Uploaded to: SVG Repo, www.svgrepo.com, Generator: SVG Repo Mixer Tools -->
<svg width="800px" height="800px" viewBox="0 0 64 64" xmlns="http://www.w3.org/2000/svg" xmlns:xlink="http://www.w3.org/1999/xlink" aria-hidden="true" role="img" class="iconify iconify--emojione" preserveAspectRatio="xMidYMid meet">
<path d="M37.7 62c-47.5 0-47.5-60 0-60v60" fill="#9e7658">
</path>
<ellipse cx="37.7" cy="32" rx="24.3" ry="30" fill="#89664c">
</ellipse>
<ellipse cx="37.7" cy="32" rx="22.9" ry="28.3" fill="#b2d921">
</ellipse>
<ellipse cx="37.7" cy="32" rx="20" ry="24.7" fill="#c7e755">
</ellipse>
<path d="M53.4 37.3c-.3 1.4-6.2 0-6.7 1.2c-.6 1.3 3.3 6.8 2.5 7.8c-.8 1-5.3-3.8-6.3-3.1c-1 .7.1 7.9-1 8.3c-1.1.4-3-6.6-4.2-6.6c-1.1 0-3.1 6.9-4.2 6.5c-1.2-.4 0-7.6-1-8.3c-1-.7-5.5 4.1-6.3 3.1c-.8-1 3.1-6.5 2.5-7.8c-.6-1.2-6.4.1-6.7-1.2c-.3-1.4 5.3-3.7 5.3-5.2c0-1.4-5.6-3.8-5.3-5.2c.3-1.4 6.2 0 6.7-1.2c.6-1.3-3.3-6.8-2.5-7.8c.8-1 5.3 3.8 6.3 3.1c1-.7-.1-7.9 1-8.3c1.1-.4 3 6.6 4.2 6.6c1.1 0 3.1-6.9 4.2-6.6c1.2.4 0 7.6 1 8.3c1 .7 5.5-4.1 6.3-3.1c.8 1-3.1 6.5-2.5 7.8c.6 1.2 6.4-.1 6.7 1.2c.3 1.4-5.3 3.7-5.3 5.2s5.6 3.9 5.3 5.3" fill="#b2d921">
</path>
<path fill="#ecffad" d="M51 32l-8.1 1.7l6.3 6.5l-7.7-3.5l2.8 9.5l-5.2-7.7l-1.4 9.9l-1.5-9.9l-5.2 7.7l2.8-9.5l-7.7 3.5l6.3-6.5l-8.1-1.7l8.1-1.7l-6.3-6.5l7.7 3.5l-2.8-9.5l5.2 7.7l1.5-9.9l1.4 9.9l5.2-7.7l-2.8 9.5l7.7-3.5l-6.3 6.5z">
</path>
<g fill="#3e4347">
<path d="M34.9 17.4l-.4 2.4l1.3 1.9l.4-2.4z">
</path>
<path d="M32.4 14l-.5 2.4l1.3 1.9l.5-2.4z">
</path>
<path d="M41.4 16.9l-1.7 1.3l-.2 2.5l1.7-1.4z">
</path>
<path d="M40.4 46.6l.5-2.4l-1.4-1.9l-.4 2.4z">
</path>
<path d="M43 50l.4-2.4l-1.3-1.9l-.5 2.4z">
</path>
<path d="M33.9 47.1l1.7-1.3l.2-2.5l-1.7 1.4z">
</path>
<path d="M49.5 28.6l-1.9-.5l-1.6 1.6l2 .5z">
</path>
<path d="M52.3 25.5l-2-.6l-1.5 1.6l1.9.6z">
</path>
<path d="M49.9 36.6l-1-2.1l-2-.2l1 2.1z">
</path>
<path d="M25.8 35.4l2 .5l1.5-1.6l-2-.5z">
</path>
<path d="M23.1 38.5l1.9.6l1.5-1.6l-1.9-.6z">
</path>
<path d="M25.4 27.4l1 2.1l2 .2l-1-2.1z">
</path>
<path d="M47.2 22.6l-2 .6l-.8 2.2l1.9-.5z">
</path>
<path d="M48.5 18.3l-1.9.6l-.8 2.3l1.9-.6z">
</path>
<path d="M26.8 45.7l1.9-.6l.9-2.3l-2 .6z">
</path>
<path d="M30 20.3l.5 2.4l1.8 1l-.4-2.4z">
</path>
<path d="M26.6 18.6L27 21l1.9 1l-.5-2.4z">
</path>
<path d="M48.7 45.4l-.4-2.4l-1.8-1l.4 2.4z">
</path>
</g>
</svg>