<?xml version="1.0" encoding="utf-8"?>
<!-- Uploaded to: SVG Repo, www.svgrepo.com, Generator: SVG Repo Mixer Tools -->
<svg width="800px" height="800px" viewBox="0 0 1024 1024" class="icon"  version="1.1" xmlns="http://www.w3.org/2000/svg"><path d="M337.92 282.624h61.44v61.44h-61.44zM399.36 282.624h61.44v61.44h-61.44zM460.8 223.232h61.44v61.44h-61.44z" fill="#664400" /><path d="M460.8 282.624h61.44v61.44h-61.44z" fill="#9BE53C" /><path d="M520.192 223.232h61.44v61.44h-61.44z" fill="#664400" /><path d="M520.192 282.624h61.44v61.44h-61.44z" fill="#9BE53C" /><path d="M581.632 282.624h61.44v61.44h-61.44zM278.528 344.064h61.44v61.44h-61.44zM278.528 405.504h61.44v61.44h-61.44z" fill="#664400" /><path d="M337.92 344.064h61.44v61.44h-61.44zM399.36 344.064h61.44v61.44h-61.44zM337.92 405.504h61.44v61.44h-61.44zM399.36 405.504h61.44v61.44h-61.44zM460.8 344.064h61.44v61.44h-61.44z" fill="#9BE53C" /><path d="M460.8 405.504h61.44v61.44h-61.44z" fill="#070707" /><path d="M520.192 344.064h61.44v61.44h-61.44zM581.632 344.064h61.44v61.44h-61.44zM520.192 405.504h61.44v61.44h-61.44z" fill="#9BE53C" /><path d="M581.632 405.504h61.44v61.44h-61.44z" fill="#070707" /><path d="M217.088 464.896h61.44v61.44h-61.44z" fill="#664400" /><path d="M278.528 464.896h61.44v61.44h-61.44z" fill="#9BE53C" /><path d="M337.92 464.896h61.44v61.44h-61.44zM399.36 464.896h61.44v61.44h-61.44z" fill="#9BE53C" /><path d="M460.8 464.896h61.44v61.44h-61.44z" fill="#FFF2B0" /><path d="M520.192 464.896h61.44v61.44h-61.44z" fill="#FFF2B0" /><path d="M581.632 464.896h61.44v61.44h-61.44z" fill="#9BE53C" /><path d="M217.088 526.336h61.44v61.44h-61.44z" fill="#664400" /><path d="M278.528 526.336h61.44v61.44h-61.44z" fill="#9BE53C" /><path d="M278.528 587.776h61.44v61.44h-61.44z" fill="#664400" /><path d="M337.92 526.336h61.44v61.44h-61.44z" fill="#070707" /><path d="M399.36 526.336h61.44v61.44h-61.44zM337.92 587.776h61.44v61.44h-61.44z" fill="#9BE53C" /><path d="M399.36 587.776h61.44v61.44h-61.44z" fill="#070707" /><path d="M460.8 526.336h61.44v61.44h-61.44z" fill="#FFF2B0" /><path d="M460.8 587.776h61.44v61.44h-61.44z" fill="#9BE53C" /><path d="M520.192 526.336h61.44v61.44h-61.44z" fill="#FFF2B0" /><path d="M581.632 526.336h61.44v61.44h-61.44zM520.192 587.776h61.44v61.44h-61.44z" fill="#9BE53C" /><path d="M581.632 587.776h61.44v61.44h-61.44z" fill="#070707" /><path d="M643.072 282.624h61.44v61.44h-61.44z" fill="#664400" /><path d="M643.072 344.064h61.44v61.44h-61.44z" fill="#9BE53C" /><path d="M702.464 344.064h61.44v61.44h-61.44z" fill="#664400" /><path d="M643.072 405.504h61.44v61.44h-61.44z" fill="#9BE53C" /><path d="M702.464 405.504h61.44v61.44h-61.44z" fill="#664400" /><path d="M643.072 464.896h61.44v61.44h-61.44z" fill="#9BE53C" /><path d="M702.464 464.896h61.44v61.44h-61.44zM643.072 526.336h61.44v61.44h-61.44z" fill="#9BE53C" /><path d="M702.464 526.336h61.44v61.44h-61.44zM643.072 587.776h61.44v61.44h-61.44z" fill="#9BE53C" /><path d="M702.464 587.776h61.44v61.44h-61.44zM278.528 647.168h61.44v61.44h-61.44z" fill="#664400" /><path d="M337.92 647.168h61.44v61.44h-61.44zM399.36 647.168h61.44v61.44h-61.44z" fill="#9BE53C" /><path d="M337.92 708.608h61.44v61.44h-61.44zM399.36 708.608h61.44v61.44h-61.44z" fill="#664400" /><path d="M460.8 647.168h61.44v61.44h-61.44zM460.8 708.608h61.44v61.44h-61.44z" fill="#9BE53C" /><path d="M520.192 647.168h61.44v61.44h-61.44zM581.632 647.168h61.44v61.44h-61.44zM520.192 708.608h61.44v61.44h-61.44z" fill="#9BE53C" /><path d="M581.632 708.608h61.44v61.44h-61.44z" fill="#664400" /><path d="M643.072 647.168h61.44v61.44h-61.44z" fill="#9BE53C" /><path d="M702.464 647.168h61.44v61.44h-61.44zM643.072 708.608h61.44v61.44h-61.44zM763.904 464.896h61.44v61.44h-61.44zM763.904 526.336h61.44v61.44h-61.44zM460.8 768h61.44v61.44h-61.44z" fill="#664400" /><path d="M520.192 768h61.44v61.44h-61.44z" fill="#664400" /></svg>