<svg fill="#000000" width="800px" height="800px" viewBox="0 0 100 100" style="fill-rule:evenodd;clip-rule:evenodd;stroke-linejoin:round;stroke-miterlimit:2;" version="1.1" xml:space="preserve" xmlns="http://www.w3.org/2000/svg" xmlns:serif="http://www.serif.com/" xmlns:xlink="http://www.w3.org/1999/xlink">

<g id="Icon">

<path d="M15.189,67.517c0.267,-0.067 0.505,-0.245 0.642,-0.509c0.812,-1.568 2.046,-2.645 3.312,-3.864c1.737,-1.673 3.405,-3.765 5.663,-4.744c0.843,-0.366 1.865,-0.385 2.891,-0.309c1.176,0.087 2.361,0.313 3.362,0.443c5.457,0.711 10.523,2.137 15.849,3.404c1.862,0.443 3.738,1.205 5.632,1.686c2.09,0.531 4.199,0.728 6.331,-0.019c2.316,-0.811 3.553,-2.519 3.79,-4.367c0.234,-1.818 -0.514,-3.816 -2.298,-5.272c-1.287,-1.051 -2.831,-1.609 -4.408,-2.107c-1.372,-0.434 -2.77,-0.817 -3.972,-1.583c-0.481,-0.307 -1.057,-0.802 -1.399,-1.382c-0.225,-0.382 -0.357,-0.812 -0.075,-1.219c0.279,-0.401 0.828,-0.412 1.398,-0.383c1.28,0.066 2.734,0.628 3.426,0.959c3.487,1.668 6.403,4.307 9.849,6.059c2.167,1.102 4.852,1.318 7.237,1.506c0.129,0.01 0.258,0.019 0.388,0.028c0.288,3.353 0.417,7.2 -0.029,10.48c-1.214,8.94 -4.373,18.778 -11.213,25.06c-0.406,0.373 -0.433,1.007 -0.06,1.413c0.374,0.407 1.007,0.433 1.413,0.06c7.178,-6.593 10.568,-16.882 11.842,-26.264c0.454,-3.347 0.344,-7.263 0.058,-10.704c2.659,-0.055 5.423,-0.599 7.539,-2.125c1.488,-1.072 2.454,-3.098 2.968,-4.779c1.317,-4.307 0.791,-11.394 -2.208,-15.003c-1.777,-2.137 -4.295,-3.175 -6.973,-3.974c-2.36,-0.703 -4.846,-1.217 -6.925,-2.354c-0.541,-5.038 0.379,-9.603 -1.351,-14.601c-0.907,-2.622 -4.228,-5.017 -6.843,-5.562c-6.358,-1.325 -13.365,1.03 -18.185,5.344c-1.817,1.626 -3.283,3.066 -3.97,5.447c-0.274,0.946 -0.433,2.261 -0.745,3.505c-0.25,0.995 -0.568,1.962 -1.281,2.493c-1.494,1.111 -2.58,0.1 -3.694,-0.742c-1.815,-1.373 -3.651,-2.572 -6.063,-0.793c-0.611,0.451 -1.084,0.832 -1.524,1.436c-1.51,2.07 -1.945,4.333 -2.17,6.671c-0.201,2.09 -0.222,4.241 -0.911,6.331c-1.509,4.584 -4.431,8.574 -5.982,13.129c-1.003,2.943 -1.091,6.008 -1.516,9.063c-0.333,2.394 -0.956,4.718 -1.211,7.13c-0.058,0.549 0.34,1.042 0.889,1.1c0.187,0.02 0.368,-0.013 0.527,-0.088Zm5.767,-14.646c-2.004,3.104 -3.6,6.424 -4.568,10.033c-0.011,0.055 -0.022,0.11 -0.033,0.165c0.45,-0.457 0.921,-0.904 1.401,-1.366c1.902,-1.832 3.78,-4.065 6.255,-5.138c0.083,-0.036 0.167,-0.07 0.253,-0.101c-0.518,-1.621 -1.573,-2.639 -3.104,-3.404c-0.087,-0.044 -0.157,-0.11 -0.204,-0.189Zm15.769,-11.536c0.05,0.072 0.099,0.144 0.149,0.216c2.259,3.286 4.273,7.259 5.271,11.153c0.312,0.005 0.62,0.043 0.918,0.117c0.745,0.187 1.482,0.735 2.125,1.451c0.9,1.002 1.623,2.321 1.964,3.247c0.324,0.88 0.133,1.72 -0.389,2.328c0.202,0.049 0.405,0.097 0.608,0.146c1.872,0.445 3.758,1.209 5.662,1.693c1.709,0.434 3.434,0.642 5.178,0.031c1.474,-0.516 2.315,-1.557 2.466,-2.733c0.155,-1.205 -0.397,-2.504 -1.579,-3.469c-1.089,-0.889 -2.411,-1.328 -3.746,-1.749c-1.539,-0.486 -3.096,-0.944 -4.444,-1.804c-0.865,-0.551 -1.903,-1.542 -2.333,-2.634c-0.305,-0.775 -0.343,-1.597 0.056,-2.397c-0.781,-0.55 -1.828,-0.909 -2.9,-1.217c-1.427,-0.411 -2.906,-0.723 -3.973,-1.176c-1.862,-0.79 -3.401,-2.093 -5.033,-3.203Zm8.806,18.213c0.623,-0.319 0.946,-0.968 0.683,-1.683c-0.308,-0.834 -0.959,-2.023 -1.77,-2.925c-0.497,-0.553 -1.048,-1.005 -1.624,-1.149c-1.435,-0.358 -3.231,0.353 -3.773,1.775c-0.171,0.45 -0.057,1.151 0.194,1.783c0.11,0.276 0.245,0.544 0.405,0.77c1.959,0.454 3.909,0.945 5.885,1.429Zm-11.876,-20.683c-2.598,2.118 -5.049,4.512 -7.395,7.14c-0.069,0.078 -0.138,0.155 -0.206,0.232c0.107,0.073 0.223,0.16 0.344,0.259c0.689,0.565 1.593,1.539 1.851,1.759c2.8,2.379 4.657,5.111 5.451,8.652c1.572,0.263 3.118,0.576 4.656,0.918c-0.016,-0.036 -0.03,-0.071 -0.045,-0.107c-0.351,-0.887 -0.439,-1.876 -0.198,-2.508c0.481,-1.263 1.702,-2.123 3.025,-2.405c-0.983,-3.737 -2.921,-7.536 -5.088,-10.688c-0.522,-0.759 -1.045,-1.505 -1.545,-2.279c-0.068,-0.106 -0.643,-0.745 -0.85,-0.973Zm-15.446,12.669c-0.596,2.003 -0.785,4.062 -1.007,6.129c0.828,-1.85 1.812,-3.625 2.917,-5.336c-0.434,-0.166 -1.09,-0.378 -1.637,-0.647c-0.095,-0.046 -0.186,-0.095 -0.273,-0.146Zm7.175,-4.53c-1.413,1.644 -2.737,3.344 -3.93,5.113c0.052,0.008 0.104,0.023 0.154,0.048c1.803,0.902 3.028,2.117 3.625,4.042c1.949,-0.347 4.286,0.11 6.085,0.344c0.44,0.057 0.878,0.119 1.313,0.185c-0.792,-3.132 -2.507,-5.576 -5.029,-7.719c-0.257,-0.218 -1.154,-1.187 -1.838,-1.748c-0.125,-0.102 -0.292,-0.21 -0.38,-0.265Zm25.491,-17.048c-2.819,0.732 -5.477,1.725 -7.998,2.955c0.405,0.45 1.13,1.047 1.406,1.283c1.373,1.177 2.92,2.259 4.219,3.499c0.458,0.437 0.927,0.882 1.37,1.35c1.224,0.624 2.544,1.383 3.577,2.261c0.582,0.495 0.978,1.192 1.589,1.655c2.659,2.018 4.879,3.602 6.245,6.582c1.561,1.063 3.12,2.13 4.805,2.986c1.94,0.986 4.353,1.127 6.488,1.295c0.943,0.074 1.943,0.104 2.945,0.049c-0.95,-2.035 -3.322,-3.453 -5.182,-4.42c-0.418,-0.217 -1.179,-0.654 -1.897,-0.968c-0.38,-0.167 -0.743,-0.306 -1.016,-0.326c-0.223,0.183 -0.487,0.319 -0.771,0.408c-0.659,0.206 -1.421,0.141 -1.981,-0.176c-0.696,-0.393 -1.444,-1.264 -1.674,-2.156c-0.176,-0.68 -0.072,-1.368 0.476,-1.916l0,0c0.044,-0.044 0.091,-0.085 0.139,-0.124c-0.029,-0.035 -0.053,-0.074 -0.072,-0.118c-0.141,-0.329 -0.445,-0.512 -0.768,-0.67c-0.442,-0.217 -0.929,-0.376 -1.31,-0.591c-0.784,-0.443 -1.514,-1.193 -2.05,-1.907c-0.736,-0.981 -0.982,-2.15 -1.198,-3.337c-0.191,-1.043 -0.354,-2.101 -0.95,-3.006c-0.619,-0.94 -1.758,-1.74 -2.95,-2.48c-1.226,-0.761 -2.514,-1.453 -3.442,-2.128Zm-18.965,20.055c0,1.06 0.924,2.784 1.754,3.43c0.558,0.434 1.187,0.537 1.685,0.373c0.528,-0.174 0.955,-0.64 1.017,-1.436c0.096,-1.258 -0.766,-2.73 -1.824,-3.376c-0.268,-0.164 -0.701,-0.392 -1.11,-0.471c-0.382,-0.073 -0.745,-0.02 -1.025,0.195c-0.267,0.205 -0.497,0.586 -0.497,1.285Zm22.631,-20.841c-0.797,0.136 -1.582,0.292 -2.353,0.467c1.025,0.652 2.29,1.331 3.414,2.085c1.031,0.691 1.945,1.449 2.5,2.292c0.671,1.019 0.884,2.202 1.098,3.377c0.189,1.033 0.374,2.061 1.015,2.916c0.457,0.609 1.073,1.258 1.742,1.637c0.449,0.254 1.051,0.427 1.543,0.715c0.42,0.247 0.768,0.568 0.963,1.022c0.019,0.046 0.032,0.094 0.037,0.141c0.655,-0.09 1.404,0.123 2.056,0.544c0.575,0.371 1.066,0.89 1.332,1.434c0.204,0.418 0.28,0.852 0.198,1.261c-0.014,0.071 -0.032,0.139 -0.052,0.205c0.137,0.039 0.281,0.088 0.428,0.144c0.839,0.32 1.832,0.89 2.338,1.154c2.134,1.109 4.819,2.82 5.769,5.216c0.728,-0.088 1.448,-0.23 2.139,-0.44c-2.177,-3.515 -5.165,-6.621 -8.317,-9.344c-1.485,-1.282 -3.21,-2.118 -4.623,-3.531c-1.14,-1.14 -1.81,-2.515 -2.77,-3.78c-2.184,-2.879 -5.184,-5.878 -8.433,-7.502c-0.008,-0.004 -0.017,-0.008 -0.024,-0.013Zm9.095,-0.727c-2.54,-0.115 -5.268,0.179 -7.473,0.48c2.934,1.765 5.62,4.506 7.631,7.157c0.932,1.229 1.574,2.571 2.681,3.678c1.395,1.395 3.103,2.215 4.57,3.482c3.281,2.834 6.384,6.078 8.622,9.752c0.537,-0.229 1.048,-0.51 1.52,-0.85c0.053,-0.038 0.106,-0.078 0.157,-0.12c-0.086,-0.166 -0.158,-0.36 -0.217,-0.569c-0.116,-0.409 -0.184,-0.882 -0.31,-1.163c-0.567,-1.265 -1.423,-3.083 -2.504,-4.577c-0.652,-0.899 -1.38,-1.683 -2.184,-2.124c-0.263,0.081 -0.566,0.122 -0.91,0.107c-1.049,-0.043 -2.169,-0.42 -2.947,-1.15c-0.136,-0.128 -0.229,-0.273 -0.314,-0.445c-0.113,-0.23 -0.214,-0.536 -0.631,-0.935l0.003,0.003c-0.577,-0.424 -0.73,-0.915 -0.667,-1.311c0.092,-0.58 0.731,-1.125 1.721,-1.088c0.103,0.003 0.208,0.01 0.314,0.021l-0.002,-0.004c-0.346,-0.631 -0.625,-1.397 -0.994,-1.766c-1.266,-1.267 -2.695,-2.405 -3.924,-3.702c-1.267,-1.337 -2.821,-3.53 -4.142,-4.876Zm-30.726,21.568c0,-0.139 0.012,-0.255 0.037,-0.35c0.017,-0.064 0.033,-0.114 0.069,-0.142c0.034,-0.026 0.079,-0.021 0.124,-0.019c0.074,0.004 0.152,0.022 0.228,0.045c0.248,0.075 0.491,0.211 0.652,0.31c0.771,0.471 1.419,1.531 1.348,2.447c-0.018,0.245 -0.096,0.427 -0.24,0.519c-0.231,0.148 -0.556,0.058 -0.85,-0.17c-0.641,-0.498 -1.368,-1.822 -1.368,-2.64Zm-9.681,-9.29c-1.505,3.312 -3.47,6.428 -4.7,9.848c0.115,0.075 0.252,0.144 0.394,0.213c0.608,0.299 1.353,0.523 1.759,0.694c1.448,-2.138 3.081,-4.176 4.832,-6.137c0.728,-0.816 1.466,-1.609 2.216,-2.38c-0.828,-0.215 -1.602,-0.624 -2.361,-1.068c-0.712,-0.417 -1.411,-0.865 -2.14,-1.17Zm45.897,-7.46c1.067,1.039 2.232,2.001 3.284,3.053c0.357,0.358 0.668,1.022 0.99,1.662c0.136,0.27 0.277,0.535 0.432,0.755c0.117,0.164 0.235,0.305 0.379,0.377c0.005,0.003 0.01,0.005 0.014,0.008c0.82,0.264 1.615,0.661 2.225,1.133c0.845,0.653 1.076,1.535 0.854,2.224c-0.057,0.179 -0.146,0.35 -0.266,0.505c0.756,0.521 1.457,1.282 2.085,2.149c1.123,1.552 2.017,3.439 2.607,4.754c0.121,0.269 0.205,0.69 0.305,1.095c0.021,0.083 0.04,0.166 0.06,0.244c0.622,-0.841 1.038,-1.907 1.317,-2.819c0.455,-1.487 0.674,-3.354 0.611,-5.265c-0.742,-1.579 -2.108,-3.369 -3.196,-4.23c-0.728,-0.577 -1.627,-0.84 -2.395,-1.352c-1.089,-0.725 -2.004,-1.619 -3.308,-1.964c-1.977,-0.524 -3.711,-1.446 -5.595,-2.2c-0.082,-0.032 -0.225,-0.077 -0.403,-0.129Zm-17.701,7.803c0.057,0.102 0.113,0.206 0.165,0.311c0.511,1.022 0.835,2.743 1.233,4.008c1.329,0.212 2.673,0.729 3.373,1.064c1.12,0.536 2.181,1.171 3.221,1.845c-1.281,-1.816 -3.014,-3.042 -4.983,-4.536c-0.626,-0.475 -1.036,-1.183 -1.633,-1.69c-0.418,-0.355 -0.886,-0.69 -1.376,-1.002Zm12.758,3.961c0.198,-0.198 0.467,-0.252 0.749,-0.227c0.359,0.031 0.739,0.187 1.082,0.408c0.352,0.227 0.665,0.526 0.872,0.851c0.169,0.264 0.273,0.543 0.22,0.808c-0.079,0.395 -0.393,0.634 -0.749,0.745c-0.396,0.124 -0.855,0.099 -1.191,-0.091c-0.417,-0.236 -0.859,-0.712 -1.091,-1.235c-0.192,-0.431 -0.247,-0.905 0.108,-1.259l0,-0Zm-22.209,-11.66c-2.649,1.368 -5.145,2.999 -7.519,4.86c0.363,0.365 0.81,0.946 0.891,1.071c0.016,0.025 0.032,0.05 0.048,0.074c2.348,1.189 4.255,3.187 6.755,4.247c1.251,0.531 3.084,0.857 4.713,1.398c0.877,0.292 1.696,0.647 2.357,1.111c0.626,-0.588 1.529,-0.848 2.542,-0.839c-0.328,-1.175 -0.625,-2.584 -1.065,-3.465c-0.362,-0.723 -0.865,-1.364 -1.421,-1.961c-0.038,-0.019 -0.077,-0.039 -0.115,-0.058c-0.139,-0.069 -0.232,-0.195 -0.264,-0.336c-0.356,-0.36 -0.725,-0.707 -1.084,-1.05c-1.287,-1.229 -2.82,-2.298 -4.18,-3.464c-0.334,-0.286 -1.206,-1.048 -1.658,-1.588Zm30.015,7.051c-0.016,-0.015 -0.033,-0.029 -0.051,-0.042c-0.103,-0.073 -0.181,-0.147 -0.234,-0.222c-0.034,-0.049 -0.06,-0.093 -0.053,-0.138c0.009,-0.059 0.067,-0.098 0.131,-0.134c0.142,-0.082 0.338,-0.119 0.565,-0.111c1.158,0.043 2.57,0.559 3.492,1.271c0.439,0.339 0.628,0.769 0.513,1.127c-0.112,0.35 -0.507,0.554 -1.091,0.53c-0.818,-0.034 -1.698,-0.312 -2.306,-0.881c-0.11,-0.103 -0.138,-0.244 -0.221,-0.411c-0.133,-0.269 -0.325,-0.595 -0.745,-0.989Zm-46.816,-6.905c-0.133,1.437 -0.324,2.88 -0.791,4.298c-0.223,0.678 -0.477,1.342 -0.753,1.997c0.764,0.323 1.499,0.786 2.245,1.222c0.814,0.476 1.64,0.923 2.556,1.054c0.046,0.007 0.09,0.02 0.131,0.038c1.823,-1.811 3.712,-3.483 5.685,-4.999c-0.809,-0.358 -1.767,-0.437 -2.595,-0.725c-1.692,-0.588 -3.341,-1.327 -4.925,-2.16c-0.336,-0.177 -1.001,-0.429 -1.553,-0.725Zm39.926,-4.95c0.803,0.924 1.652,2.026 2.446,2.979c0.044,0.034 0.083,0.075 0.114,0.124c0.049,0.026 0.357,0.19 0.594,0.276c0.627,0.228 1.406,0.425 1.647,0.522c1.847,0.738 3.543,1.648 5.48,2.161c1.414,0.374 2.426,1.312 3.606,2.099c0.791,0.528 1.712,0.806 2.462,1.4c0.748,0.592 1.612,1.585 2.354,2.672c-0.339,-2.126 -1.058,-4.131 -2.223,-5.533c-1.521,-1.83 -3.714,-2.652 -6.006,-3.336c-2.558,-0.762 -5.244,-1.345 -7.478,-2.607c-0.054,-0.031 -0.105,-0.066 -0.151,-0.104c-0.856,-0.324 -1.821,-0.531 -2.845,-0.653Zm-27.7,-2.261c-2.125,1.181 -3.803,0.083 -5.455,-1.167c-1.114,-0.842 -2.19,-1.87 -3.67,-0.778c-0.434,0.319 -0.783,0.576 -1.095,1.005c-1.283,1.758 -1.604,3.696 -1.795,5.683c-0.044,0.454 -0.081,0.91 -0.118,1.368c0.105,0.072 0.234,0.141 0.368,0.214c0.547,0.297 1.222,0.549 1.558,0.726c1.54,0.81 3.143,1.529 4.788,2.101c0.991,0.345 2.152,0.431 3.07,0.955c0.027,0.015 0.052,0.033 0.075,0.052c2.702,-1.989 5.56,-3.688 8.614,-5.057c-0.673,-0.613 -1.226,-1.393 -1.857,-2.025c-1.112,-1.112 -2.987,-2.282 -4.483,-3.077Zm-9.081,2.401c-0,1.686 0.644,3.521 1.978,4.623c0.837,0.691 1.726,0.737 2.421,0.398c0.684,-0.334 1.2,-1.064 1.282,-2.017c0.147,-1.722 -0.669,-4.02 -1.855,-5.29c-1.376,-1.474 -3.826,-0.161 -3.826,2.286Zm1,0c-0,-0.921 0.5,-1.641 1.111,-1.855c0.336,-0.117 0.7,-0.053 0.984,0.251c1.014,1.086 1.716,3.05 1.589,4.523c-0.048,0.56 -0.322,1.007 -0.723,1.203c-0.389,0.19 -0.878,0.117 -1.347,-0.27c-1.107,-0.915 -1.614,-2.452 -1.614,-3.852Zm11.268,-9.006c-0.213,1.027 -0.391,2.265 -0.745,3.369c-0.331,1.033 -0.817,1.952 -1.528,2.595c1.487,0.825 3.211,1.946 4.276,3.011c0.729,0.729 1.332,1.681 2.181,2.287c2.499,-1.044 5.128,-1.868 7.908,-2.451c-1.1,-1.642 -2.215,-3.609 -3.76,-4.798c-1.524,-1.172 -3.322,-1.824 -5.057,-2.617c-0.64,-0.293 -1.458,-0.761 -2.268,-1.089c-0.344,-0.139 -0.686,-0.254 -1.007,-0.307Zm8.508,-8.634c-1.795,0.855 -3.467,1.964 -4.92,3.264c-1.491,1.335 -2.758,2.476 -3.349,4.399c0.368,0.07 0.755,0.195 1.143,0.351c0.824,0.333 1.658,0.809 2.309,1.106c1.804,0.825 3.666,1.516 5.25,2.735c1.739,1.337 2.978,3.6 4.217,5.38c0.684,-0.127 1.378,-0.239 2.081,-0.336c0.293,-0.041 0.596,-0.081 0.907,-0.121c-0.629,-0.925 -1.319,-2.405 -1.733,-3.109c-0.887,-1.507 -2.091,-2.908 -2.735,-4.543c-0.628,-1.592 -0.705,-3.337 -1.293,-4.942c-0.362,-0.985 -0.849,-1.922 -1.326,-2.856c-0.084,-0.164 -0.344,-0.773 -0.551,-1.328Zm17.955,11.566c-0.557,1.424 -1.248,2.757 -1.979,3.642c-0.268,0.324 -0.673,0.79 -1.115,1.207c1.154,0.065 2.27,0.212 3.284,0.474c-0.199,-1.823 -0.192,-3.582 -0.19,-5.323Zm-0.049,-3.135c-0.089,-1.899 -0.338,-3.808 -1.022,-5.785c-0.704,-2.036 -3.33,-3.835 -5.361,-4.258c-3.514,-0.733 -7.244,-0.207 -10.608,1.203c0.193,0.526 0.446,1.125 0.526,1.282c0.496,0.97 0.999,1.943 1.375,2.967c0.585,1.597 0.66,3.335 1.284,4.92c0.625,1.587 1.806,2.94 2.667,4.402c0.483,0.822 1.34,2.785 2.018,3.462c0.005,0.006 0.011,0.012 0.016,0.018c1.41,-0.152 2.93,-0.264 4.433,-0.269l0,0c0.25,-0.083 0.52,-0.29 0.787,-0.528c0.465,-0.415 0.905,-0.936 1.184,-1.274c1.149,-1.391 2.181,-3.966 2.701,-6.14Zm-10.858,-6.674c-0.018,0.013 -0.034,0.028 -0.05,0.043c-0.903,0.903 -1.052,2.134 -0.787,3.432c0.354,1.736 1.458,3.595 2.091,4.734c0.292,0.525 0.908,1.269 1.602,1.686c0.552,0.332 1.151,0.457 1.701,0.249c2.864,-1.087 2.985,-4.494 1.705,-7.225c-0.624,-1.33 -1.568,-2.48 -2.623,-3.096c-1.153,-0.673 -2.436,-0.744 -3.639,0.177Zm0.635,0.773c0.827,-0.617 1.708,-0.549 2.5,-0.086c0.9,0.525 1.689,1.522 2.221,2.657c0.535,1.14 0.812,2.427 0.647,3.543c-0.153,1.028 -0.698,1.903 -1.801,2.322c-0.271,0.103 -0.558,-0.007 -0.83,-0.171c-0.541,-0.325 -1.017,-0.906 -1.244,-1.314c-0.595,-1.072 -1.652,-2.815 -1.985,-4.449c-0.191,-0.937 -0.148,-1.839 0.488,-2.498l0.004,-0.004Z"/>
</g>
</svg>