<?xml version="1.0" encoding="utf-8"?>
<!-- Uploaded to: SVG Repo, www.svgrepo.com, Generator: SVG Repo Mixer Tools -->
<svg width="800px" height="800px" viewBox="0 0 1024 1024" class="icon"  version="1.1" xmlns="http://www.w3.org/2000/svg"><path d="M647.68 212.48c0-70.4-62.72-128-140.8-128s-140.8 57.6-140.8 128v281.6c0 70.4 62.72 128 140.8 128s140.8-57.6 140.8-128v-281.6z" fill="#F2E5CA" /><path d="M506.88 634.88c-84.48 0-153.6-62.72-153.6-140.8v-281.6c0-78.08 69.12-140.8 153.6-140.8s153.6 62.72 153.6 140.8v281.6c0 78.08-69.12 140.8-153.6 140.8z m0-537.6c-70.4 0-128 51.2-128 115.2v281.6c0 64 57.6 115.2 128 115.2s128-51.2 128-115.2v-281.6c0-64-57.6-115.2-128-115.2z" fill="#231C1C" /><path d="M508.16 698.88c-120.32 0-217.6-87.04-217.6-194.56V367.36h25.6v135.68c0 93.44 85.76 168.96 192 168.96s192-75.52 192-168.96V367.36h25.6v135.68c0 108.8-97.28 195.84-217.6 195.84z" fill="#231C1C" /><path d="M366.08 302.08h281.6v89.6h-281.6z" fill="#EEBE00" /><path d="M647.68 404.48h-281.6c-7.68 0-12.8-5.12-12.8-12.8v-89.6c0-7.68 5.12-12.8 12.8-12.8h281.6c7.68 0 12.8 5.12 12.8 12.8v89.6c0 6.4-5.12 12.8-12.8 12.8z m-268.8-25.6h256v-64h-256v64z" fill="#231C1C" /><path d="M698.88 890.88h-384c0-64 85.76-115.2 192-115.2s192 51.2 192 115.2z" fill="#EEBE00" /><path d="M698.88 903.68h-384c-7.68 0-12.8-5.12-12.8-12.8 0-71.68 89.6-128 204.8-128s204.8 56.32 204.8 128c0 7.68-5.12 12.8-12.8 12.8z m-369.92-25.6h355.84c-11.52-49.92-88.32-89.6-177.92-89.6s-166.4 39.68-177.92 89.6z" fill="#231C1C" /><path d="M495.36 686.08h25.6V780.8h-25.6zM327.68 417.28h-25.6c-7.68 0-12.8-5.12-12.8-12.8v-76.8c0-7.68 5.12-12.8 12.8-12.8h25.6c7.68 0 12.8 5.12 12.8 12.8v76.8c0 6.4-5.12 12.8-12.8 12.8zM711.68 417.28h-25.6c-7.68 0-12.8-5.12-12.8-12.8v-76.8c0-7.68 5.12-12.8 12.8-12.8h25.6c7.68 0 12.8 5.12 12.8 12.8v76.8c0 6.4-5.12 12.8-12.8 12.8zM366.08 199.68h89.6v25.6h-89.6zM378.88 148.48h76.8v25.6h-76.8zM558.08 148.48h76.8v25.6h-76.8zM558.08 199.68h89.6v25.6h-89.6zM558.08 455.68h89.6v25.6h-89.6z" fill="#231C1C" /><path d="M558.08 506.88h76.8v25.6h-76.8z" fill="#231C1C" /><path d="M378.88 506.88h76.8v25.6h-76.8z" fill="#231C1C" /><path d="M366.08 455.68h89.6v25.6h-89.6z" fill="#231C1C" /></svg>